<svg width="74" height="30" viewBox="0 0 74 30" fill="none" xmlns="http://www.w3.org/2000/svg">
<path d="M71.6538 14.9999C70.0898 13.6274 67.6948 12.598 64.42 11.9117C61.2919 11.2745 59.2879 10.6862 58.457 10.196C57.6261 9.70583 57.1862 9.06857 57.1862 8.23524C57.1862 7.40191 57.5283 6.76465 58.1638 6.22544C58.848 5.73524 59.8745 5.49014 61.3408 5.49014C62.8071 5.49014 63.8824 5.78426 64.6155 6.42152C65.2998 7.05877 65.6908 7.8921 65.6908 8.97054V9.41171H73.4623V9.06857C73.4623 6.27446 72.387 4.01956 70.1875 2.40191C67.9881 0.784261 65.0554 -0.0490723 61.3896 -0.0490723C57.7239 -0.0490723 54.7912 0.735241 52.6406 2.30387C51.5165 3.1372 50.6856 4.11759 50.1479 5.29406C50.3923 5.6372 50.6367 6.02936 50.8322 6.42152C51.9564 8.52936 52.5918 10.9803 52.6895 13.7254C52.6895 13.9705 52.6895 14.2647 52.6895 14.5098V15.049C54.2047 16.0784 56.2575 16.8627 58.8969 17.4019C62.0251 18.0392 63.9801 18.5784 64.811 19.0686C65.642 19.5588 66.033 20.245 66.033 21.2254C66.033 22.2058 65.642 22.9901 64.8599 23.5294C64.0779 24.1176 62.9048 24.4117 61.3408 24.4117C59.7767 24.4117 58.6036 24.1176 57.675 23.4803C56.7952 22.8921 56.3553 21.9117 56.3553 20.5882V20.147H52.103C52.0052 20.4901 51.9075 20.8333 51.7608 21.1764C51.4187 22.2058 50.9299 23.1862 50.3923 24.1176C50.1968 24.4607 49.9524 24.7549 49.708 25.098C50.2457 25.9803 50.9788 26.7647 51.8586 27.4019C54.1069 29.0196 57.2351 29.8529 61.3408 29.8529C65.4465 29.8529 68.5746 29.0196 70.7252 27.4019C72.8758 25.7843 73.9511 23.4803 73.9511 20.6372C73.9511 18.1862 73.169 16.2745 71.6538 14.9019V14.9999Z" fill="#FF1C00"/>
<path d="M50.6857 21.2745C50.8323 20.9314 50.9301 20.5882 51.0278 20.1961C51.1256 19.8529 51.2234 19.5098 51.2722 19.1176C51.5166 17.9902 51.6144 16.8137 51.6144 15.5882C51.6144 15.4902 51.6144 15.4412 51.6144 15.3431V14.4608C51.6144 14.4608 51.6144 14.2647 51.6144 14.1667C51.6144 13.5784 51.6144 12.9902 51.5166 12.451C51.37 10.8824 51.0278 9.46078 50.4902 8.18627C50.2458 7.59804 50.0014 7.05882 49.6593 6.56863C49.4149 6.17647 49.1705 5.78431 48.9261 5.44118C48.5351 4.90196 48.0952 4.41176 47.6064 3.92157C44.9182 1.27451 41.399 0 37.0979 0C32.7967 0 29.2775 1.32353 26.5893 3.92157C26.1005 4.36275 25.6606 4.85294 25.2696 5.39216C25.4162 5.78431 25.5629 6.22549 25.6606 6.66667C25.8561 7.45098 25.9539 8.28431 25.9539 9.11765V10.4902H22.9235C22.728 11.3726 22.5813 12.3039 22.5325 13.2843C22.9235 13.5294 23.2656 13.7745 23.5589 14.0686C23.6078 14.1176 23.7055 14.1667 23.7544 14.2157C25.514 15.7843 26.4426 17.9902 26.4426 20.7353C26.4426 21.8137 26.296 22.8431 26.0027 23.8235C25.905 24.2157 25.7584 24.6078 25.5629 25C25.8561 25.3922 26.1983 25.7353 26.5404 26.0784C29.2286 28.7255 32.7478 30 37.049 30C41.3502 30 44.8693 28.6765 47.5576 26.0784C47.8508 25.7843 48.1441 25.4412 48.4374 25.1471C48.6817 24.8529 48.9261 24.5098 49.1705 24.1667C49.4149 23.7745 49.6593 23.3824 49.9037 22.9902C50.1969 22.451 50.4413 21.9118 50.6368 21.3235L50.6857 21.2745ZM30.695 15.8824V14.1176C30.695 11.4706 31.2815 9.5098 32.4057 8.13725C33.5298 6.76471 35.0939 6.07843 37.0979 6.07843C39.1018 6.07843 40.6659 6.76471 41.7901 8.13725C42.9142 9.5098 43.5008 11.4706 43.5008 14.1176V15.8824C43.5008 18.5294 42.9631 20.4902 41.8389 21.8627C40.7148 23.2353 39.1507 23.9216 37.1467 23.9216C35.1428 23.9216 33.5298 23.2353 32.4057 21.8627C31.2815 20.4902 30.7438 18.5294 30.7438 15.8824H30.695Z" fill="#FF1C00"/>
<path d="M23.1189 14.9999C23.1189 14.9999 22.7767 14.7058 22.5812 14.5588C22.2391 14.3137 21.897 14.0686 21.5548 13.8725C20.0885 13.0392 18.2312 12.4019 15.9339 11.9117C12.8058 11.2745 10.8018 10.6862 9.97094 10.196C9.14003 9.70583 8.70013 9.06857 8.70013 8.23524C8.70013 7.40191 9.04227 6.76465 9.67767 6.22544C10.362 5.73524 11.3884 5.49014 12.8547 5.49014C14.321 5.49014 15.3963 5.78426 16.1295 6.42152C16.8137 7.05877 17.2048 7.8921 17.2048 8.97054V9.41171H24.9762V9.06857C24.9762 8.72544 24.9762 8.3823 24.9273 8.08818C24.8785 7.49995 24.7807 6.96073 24.5852 6.47054C24.4386 6.02936 24.2919 5.6372 24.0964 5.24505C23.5588 4.16661 22.7279 3.23524 21.6526 2.40191C19.4531 0.784261 16.5205 -0.0490723 12.8547 -0.0490723C9.1889 -0.0490723 6.25627 0.784261 4.10568 2.35289C1.95509 3.92152 0.879789 6.07838 0.879789 8.77446C0.879789 11.0294 1.66182 12.8921 3.17701 14.3137C4.69221 15.7352 7.08719 16.8137 10.4108 17.4509C13.539 18.0882 15.4941 18.6274 16.325 19.1176C17.1559 19.6078 17.5469 20.2941 17.5469 21.2745C17.5469 22.2549 17.1559 23.0392 16.3738 23.5784C15.5918 24.1666 14.4188 24.4607 12.8547 24.4607C11.2906 24.4607 10.1176 24.1666 9.1889 23.5294C8.30911 22.9411 7.86922 21.9607 7.86922 20.6372V20.196H0V20.4411C0 23.4803 1.12417 25.7843 3.37252 27.4509C5.62087 29.0686 8.74901 29.9019 12.8547 29.9019C16.9604 29.9019 20.0885 29.0686 22.2391 27.4509C23.1678 26.7647 23.852 25.9313 24.3897 24.9999C24.5852 24.6568 24.7807 24.2647 24.9273 23.8725C25.074 23.4313 25.2206 22.9411 25.3184 22.4509C25.4161 21.8627 25.465 21.2745 25.465 20.6372C25.465 18.4803 24.8785 16.7647 23.6565 15.4411C23.5099 15.245 23.3144 15.098 23.1678 14.9509L23.1189 14.9999Z" fill="#FF1C00"/>
</svg>
