<svg width="44" height="35" viewBox="0 0 44 35" fill="none" xmlns="http://www.w3.org/2000/svg">
<path d="M21.1518 34.6957C26.4977 34.6957 30.8314 30.3617 30.8314 25.0153C30.8314 19.669 26.4977 15.335 21.1518 15.335C15.8059 15.335 11.4722 19.669 11.4722 25.0153C11.4722 30.3617 15.8059 34.6957 21.1518 34.6957Z" fill="#FF4020"/>
<path d="M11.1137 0C4.97811 0 0 4.97835 0 11.1144V19.4428C0 21.0715 1.32135 22.3929 2.94999 22.3929H8.56317C9.78208 16.5539 14.965 12.1593 21.162 12.1593C27.3591 12.1593 32.542 16.5539 33.761 22.3929H43.8298V0.0102538H11.1239L11.1137 0Z" fill="#FF4020"/>
</svg>
