<svg width="39" height="39" viewBox="0 0 39 39" fill="none" xmlns="http://www.w3.org/2000/svg">
<g clip-path="url(#clip0_618_219)">
<path d="M26 0C18.8202 0 13 5.82057 13 13.0008H39C39 5.82057 33.1798 0 26 0Z" fill="#FF97BF"/>
<path d="M0 13.0008C0 20.1811 5.82021 26.0016 13 26.0016V0C5.82021 0 0 5.82057 0 13.0008Z" fill="#FF97BF"/>
<path d="M13 39C20.1798 39 26 33.1794 26 25.9992H0C0 33.1794 5.82021 39 13 39Z" fill="#FF97BF"/>
<path d="M39 26.0016C39 18.8214 33.1798 13.0008 26 13.0008V39.0024C33.1798 39.0024 39 33.1818 39 26.0016Z" fill="#FF97BF"/>
</g>
<defs>
<clipPath id="clip0_618_219">
<rect width="39" height="39" fill="white"/>
</clipPath>
</defs>
</svg>
