<svg width="39" height="39" viewBox="0 0 39 39" fill="none" xmlns="http://www.w3.org/2000/svg">
<path d="M21.8589 18.5517V6.4844C21.8589 4.68148 23.3236 3.21667 25.1264 3.21667H32.1019C35.7689 3.21667 38.7496 6.19762 38.7496 9.86491V14.6487V15.2839C38.7496 17.0869 37.2849 18.5517 35.4821 18.5517H21.8691H21.8589Z" fill="#FF97BF"/>
<path d="M21.8589 22.7004V34.7677C21.8589 36.5706 23.3236 38.0354 25.1264 38.0354H32.1019C35.7689 38.0354 38.7496 35.0545 38.7496 31.3872V26.6031V25.9682C38.7496 24.1652 37.2849 22.7004 35.4821 22.7004H21.8691H21.8589Z" fill="#FF97BF"/>
<path d="M17.9461 22.7004V34.7677C17.9461 36.5706 16.4814 38.0354 14.6786 38.0354H7.70312C4.03612 38.0354 1.05542 35.0545 1.05542 31.3872V26.6031V25.9682C1.05542 24.1652 2.52017 22.7004 4.32294 22.7004H17.9359H17.9461Z" fill="#FF97BF"/>
<path d="M9.5055 19.0126C14.7553 19.0126 19.011 14.7564 19.011 9.50629C19.011 4.25613 14.7553 0 9.5055 0C4.25576 0 0 4.25613 0 9.50629C0 14.7564 4.25576 19.0126 9.5055 19.0126Z" fill="#FF97BF"/>
</svg>
