<svg width="48" height="37" viewBox="0 0 48 37" fill="none" xmlns="http://www.w3.org/2000/svg">
<path d="M47.7323 10.0696C47.7323 12.6511 46.7489 15.212 44.7925 17.189L27.1336 34.8391C25.3923 36.5908 22.555 36.5908 20.8136 34.8391L9.74097 23.7757L10.9189 22.5978C17.1159 22.0651 22.0633 17.1172 22.596 10.9197L30.565 2.95022C34.4881 -0.983407 40.8695 -0.983407 44.8028 2.95022C46.7592 4.92728 47.7425 7.48818 47.7425 10.0696H47.7323Z" fill="#008648"/>
<path d="M9.80253 19.6164C15.2163 19.6164 19.6051 15.2275 19.6051 9.81323C19.6051 4.399 15.2163 0.00982666 9.80253 0.00982666C4.38873 0.00982666 0 4.399 0 9.81323C0 15.2275 4.38873 19.6164 9.80253 19.6164Z" fill="#008648"/>
</svg>
