<svg width="165" height="91" viewBox="0 0 165 91" fill="none" xmlns="http://www.w3.org/2000/svg">
<path d="M159.722 33.3689C156.276 30.3077 150.916 28.0154 143.633 26.5065C136.627 25.0702 132.187 23.8225 130.323 22.7417C128.452 21.668 127.516 20.2172 127.516 18.3819C127.516 16.5466 128.249 15.0813 129.729 13.9642C131.201 12.847 133.566 12.2957 136.83 12.2957C140.094 12.2957 142.509 12.9849 144.083 14.3559C145.657 15.7269 146.441 17.613 146.441 19.9996V21.0152H163.813V20.297C163.813 14.0512 161.368 9.10392 156.472 5.46235C151.576 1.82078 145.048 0 136.888 0C128.728 0 122.185 1.7555 117.369 5.25198C114.83 7.10178 112.966 9.29978 111.762 11.846C112.313 12.6584 112.821 13.4927 113.292 14.3559C115.816 19.013 117.202 24.4391 117.419 30.5834C117.441 31.1637 117.456 31.7585 117.456 32.3534V33.5575C120.799 35.8353 125.427 37.5836 131.339 38.8023C138.266 40.2386 142.654 41.4718 144.504 42.5019C146.353 43.5392 147.282 45.1496 147.282 47.3404C147.282 49.5311 146.397 51.2141 144.627 52.5053C142.857 53.7965 140.239 54.4421 136.779 54.4421C133.319 54.4421 130.65 53.7675 128.662 52.411C126.675 51.0617 125.674 48.9073 125.674 45.9621V45.0045L116.157 44.9755C115.947 45.7807 115.708 46.5642 115.446 47.3331C114.656 49.6472 113.64 51.8089 112.393 53.8183C111.928 54.5655 111.435 55.2836 110.906 55.9873C112.11 57.9604 113.713 59.6869 115.729 61.1595C120.727 64.801 127.756 66.6218 136.83 66.6218C145.904 66.6218 152.947 64.801 157.727 61.1595C162.5 57.5179 164.893 52.4908 164.893 46.0854C164.893 40.6738 163.174 36.4374 159.729 33.3689H159.722Z" fill="white"/>
<path d="M112.944 47.3259C113.227 46.5569 113.481 45.7735 113.713 44.9683C113.93 44.1993 114.119 43.4159 114.286 42.6107C114.794 40.1588 115.062 37.5401 115.091 34.7617C115.091 34.5949 115.091 34.428 115.091 34.2612V32.3534C115.091 32.1212 115.091 31.8891 115.091 31.657C115.069 30.3295 114.997 29.0455 114.873 27.7905C114.518 24.3303 113.749 21.153 112.552 18.2659C112.03 17.0036 111.435 15.7995 110.753 14.6461C110.238 13.7756 109.687 12.9341 109.078 12.1289C108.186 10.932 107.199 9.80757 106.111 8.74847C100.12 2.91616 92.3078 0 82.6824 0C73.0571 0 65.2886 2.91616 59.2827 8.74847C58.2237 9.77855 57.259 10.8739 56.3813 12.0273C56.7512 12.9196 57.0486 13.8554 57.288 14.8129C57.7159 16.5321 57.9336 18.3602 57.9336 20.297V23.3728H51.2168C50.7744 25.3314 50.4842 27.3988 50.3537 29.5678C51.1806 30.1046 51.9422 30.6632 52.6458 31.258C52.7836 31.3741 52.9287 31.4901 53.0592 31.6062C57.0124 35.1244 59.0143 39.9992 59.0143 46.0854C59.0143 48.53 58.6879 50.8006 58.0569 52.897C57.7885 53.7893 57.4621 54.6525 57.0849 55.4795C57.7667 56.3137 58.5066 57.1117 59.2899 57.8733C65.2958 63.7057 73.1006 66.6218 82.6897 66.6218C92.2788 66.6218 100.134 63.7057 106.118 57.8733C106.815 57.1987 107.468 56.4878 108.084 55.7551C108.664 55.066 109.201 54.3551 109.709 53.6224C110.282 52.7882 110.811 51.9177 111.297 51.0182C111.928 49.843 112.48 48.6098 112.958 47.3259H112.944ZM68.4076 35.284V31.345C68.4076 25.491 69.6697 21.0587 72.2011 18.0337C74.7254 15.0088 78.2215 13.4999 82.6752 13.4999C87.1288 13.4999 90.6177 15.016 93.1202 18.0337C95.6299 21.0587 96.8775 25.4982 96.8775 31.345V35.284C96.8775 41.1381 95.6444 45.5704 93.1782 48.5953C90.712 51.6203 87.2086 53.1291 82.6679 53.1291C78.1272 53.1291 74.6166 51.6203 72.1286 48.5953C69.6407 45.5704 68.4003 41.1308 68.4003 35.284H68.4076Z" fill="white"/>
<path d="M51.478 33.3689C51.0935 33.028 50.6873 32.7016 50.2594 32.3824C49.5485 31.8528 48.7651 31.345 47.9237 30.8663C44.6959 29.031 40.5252 27.5729 35.3897 26.5065C28.3829 25.0702 23.9437 23.8225 22.0796 22.7417C20.2082 21.668 19.2725 20.2172 19.2725 18.3819C19.2725 16.5466 20.0051 15.0813 21.4848 13.9642C22.9573 12.847 25.3219 12.2957 28.586 12.2957C31.85 12.2957 34.2654 12.9849 35.8394 14.3559C37.4134 15.7269 38.1968 17.613 38.1968 19.9996V21.0152H55.5689V20.297C55.5689 19.5353 55.5326 18.7954 55.4601 18.0773C55.3295 16.8078 55.0902 15.6036 54.7348 14.4502C54.4519 13.5144 54.0965 12.6222 53.6612 11.7662C52.4354 9.35056 50.6293 7.24686 48.2284 5.46235C43.3323 1.82078 36.8042 0 28.644 0C20.4838 0 13.9412 1.7555 9.12487 5.25198C4.30856 8.75572 1.90041 13.5144 1.90041 19.5208C1.90041 24.5334 3.59047 28.6247 6.97785 31.7875C10.358 34.9503 15.7328 37.2934 23.0951 38.8023C30.0222 40.2386 34.4105 41.4718 36.2601 42.5019C38.1098 43.5392 39.0382 45.1496 39.0382 47.3404C39.0382 49.5311 38.1533 51.2141 36.3835 52.5053C34.6136 53.7965 31.9951 54.4421 28.5352 54.4421C25.0753 54.4421 22.406 53.7675 20.4185 52.411C18.4311 51.0617 17.4301 48.9073 17.4301 45.9621V45.0045L0 44.9465V45.6066C0 52.3312 2.49519 57.5179 7.49284 61.1595C12.4905 64.801 19.5191 66.6218 28.5932 66.6218C37.6673 66.6218 44.7105 64.801 49.4905 61.1595C51.5287 59.6071 53.1317 57.7935 54.2996 55.7406C54.7493 54.9572 55.1264 54.1302 55.4456 53.267C55.8155 52.2804 56.0984 51.2431 56.2943 50.155C56.5336 48.8637 56.6569 47.5145 56.6569 46.0854C56.6569 41.3122 55.315 37.453 52.6385 34.5006C52.2831 34.1089 51.8986 33.7244 51.4925 33.3689H51.478Z" fill="white"/>
<path d="M6.17273 78.903H2.29937L0.282898 90.35H2.08901L2.87965 85.8525H4.94689C5.03393 85.8525 5.11372 85.8525 5.20076 85.8452L6.76026 90.35H8.71144L6.96335 85.5043C7.35504 85.3519 7.71772 85.1488 8.04412 84.8949C8.84926 84.2566 9.34975 83.4078 9.53109 82.3487C9.71968 81.2824 9.52383 80.4409 8.94355 79.8243C8.36327 79.2077 7.44208 78.8958 6.17998 78.8958L6.17273 78.903ZM7.72497 82.356C7.62342 82.9508 7.36955 83.4514 6.97786 83.8431C6.58617 84.2421 5.97688 84.4379 5.16449 84.4379H3.12627L3.85886 80.3176H5.89709C6.71673 80.3176 7.25349 80.5062 7.50736 80.8907C7.76124 81.2751 7.83377 81.7612 7.73222 82.356H7.72497Z" fill="white"/>
<path d="M10.6626 90.35H18.0975L18.3513 88.9137H12.7226L13.3827 85.1706H18.2208L18.4674 83.7415H13.6366L14.2313 80.3394H19.7803L20.0414 78.903H12.6864L10.6626 90.35Z" fill="white"/>
<path d="M25.8877 78.903H22.3407L20.3243 90.35H23.8712C25.3582 90.35 26.6856 89.8713 27.8534 88.9065C29.0212 87.9417 29.7465 86.6359 30.0439 84.9892L30.1672 84.2638C30.4574 82.6099 30.1963 81.2969 29.3621 80.3394C28.5352 79.3818 27.3746 78.903 25.8877 78.903ZM28.3321 84.2493L28.2015 85.0038C27.9839 86.2515 27.5052 87.2163 26.7654 87.8981C26.0255 88.58 25.1406 88.921 24.1106 88.921H22.3915L23.9075 80.3394H25.6266C26.6566 80.3394 27.4254 80.6803 27.9187 81.3622C28.4191 82.0441 28.557 83.0089 28.3321 84.2566V84.2493Z" fill="white"/>
<path d="M43.4193 78.903H39.8724L37.8559 90.35H41.4029C42.8898 90.35 44.2172 89.8713 45.385 88.9065C46.5528 87.9417 47.2782 86.6359 47.5756 84.9892L47.6989 84.2638C47.989 82.6099 47.7279 81.2969 46.8938 80.3394C46.0669 79.3818 44.9063 78.903 43.4193 78.903ZM45.8638 84.2493L45.7332 85.0038C45.5156 86.2515 45.0369 87.2163 44.297 87.8981C43.5571 88.58 42.6722 88.921 41.6422 88.921H39.9232L41.4391 80.3394H43.1582C44.1882 80.3394 44.9571 80.6803 45.4503 81.3622C45.9508 82.0441 46.0886 83.0089 45.8638 84.2566V84.2493Z" fill="white"/>
<path d="M49.1859 90.35H56.6279L56.8745 88.9137H51.2459L51.9059 85.1706H56.744L56.9906 83.7415H52.1598L52.7546 80.3394H58.3035L58.5646 78.903H51.2096L49.1859 90.35Z" fill="white"/>
<path d="M69.7495 78.8668L63.3809 90.35H66.1228L67.3123 88.1303H71.8312L72.2519 90.35H75.516L73.0643 78.8668H69.7495ZM68.4656 85.9831L70.2717 82.6171C70.366 82.443 70.4458 82.2762 70.5111 82.1166C70.5764 81.957 70.6344 81.7902 70.6852 81.6306H70.7505C70.7505 81.7902 70.7505 81.957 70.7505 82.1166C70.7505 82.2762 70.7722 82.4503 70.8013 82.6171L71.4396 85.9831H68.4801H68.4656Z" fill="white"/>
<path d="M85.932 79.6139C85.2066 78.9901 84.1694 78.6709 82.8057 78.6709C81.4421 78.6709 80.2743 78.9756 79.3386 79.5849C78.4029 80.1943 77.8371 81.043 77.6485 82.1384C77.4744 83.1104 77.692 83.8794 78.2868 84.4452C78.8888 85.011 79.7447 85.439 80.869 85.7147C81.8845 85.9613 82.5083 86.1789 82.7332 86.382C82.958 86.5779 83.0378 86.8826 82.9653 87.2888C82.9 87.6225 82.7114 87.8909 82.3995 88.094C82.0876 88.2899 81.6669 88.3914 81.1447 88.3914C80.6224 88.3914 80.2307 88.2754 79.9769 88.036C79.723 87.7966 79.6432 87.4411 79.7302 86.9696L79.7665 86.7447H76.6765L76.633 87.0204C76.4154 88.2173 76.7055 89.1096 77.5034 89.6972C78.2941 90.2848 79.3893 90.5822 80.7675 90.5822C82.1457 90.5822 83.357 90.2775 84.329 89.6754C85.3009 89.0733 85.8885 88.1811 86.0988 86.9914C86.2946 85.8888 86.0843 85.0545 85.475 84.4887C84.8657 83.9229 84.0098 83.4876 82.9073 83.1902C81.9135 82.9218 81.297 82.7187 81.0576 82.5736C80.8183 82.4285 80.7312 82.1964 80.7965 81.87C80.84 81.558 80.9996 81.3187 81.268 81.1446C81.5364 80.9705 81.9208 80.8834 82.4213 80.8834C82.9218 80.8834 83.2772 81.0067 83.4875 81.2534C83.6979 81.5 83.7704 81.8264 83.6979 82.2327L83.6689 82.4503H86.6791L86.7226 82.1819C86.9184 81.0938 86.6501 80.2451 85.932 79.6139Z" fill="white"/>
<path d="M87.4117 90.35H90.4292L92.4456 78.903H89.4354L87.4117 90.35Z" fill="white"/>
<path d="M102.274 79.6139C101.549 78.9901 100.511 78.6709 99.1478 78.6709C97.7842 78.6709 96.6164 78.9756 95.6807 79.5849C94.745 80.1943 94.1792 81.043 93.9906 82.1384C93.8165 83.1104 94.0341 83.8794 94.6289 84.4452C95.2309 85.011 96.0869 85.439 97.2111 85.7147C98.2266 85.9613 98.8504 86.1789 99.0753 86.382C99.3001 86.5779 99.3799 86.8826 99.3074 87.2888C99.2421 87.6225 99.0535 87.8909 98.7416 88.094C98.4297 88.2899 98.009 88.3914 97.4868 88.3914C96.9645 88.3914 96.5728 88.2754 96.319 88.036C96.0651 87.7966 95.9853 87.4411 96.0723 86.9696L96.1086 86.7447H93.0186L92.9751 87.0204C92.7575 88.2173 93.0476 89.1096 93.8455 89.6972C94.6362 90.2848 95.7314 90.5822 97.1096 90.5822C98.4878 90.5822 99.6991 90.2775 100.671 89.6754C101.643 89.0733 102.231 88.1811 102.441 86.9914C102.637 85.8888 102.426 85.0545 101.817 84.4887C101.208 83.9229 100.352 83.4876 99.2494 83.1902C98.2556 82.9218 97.6391 82.7187 97.3997 82.5736C97.1604 82.4285 97.0733 82.1964 97.1386 81.87C97.1821 81.558 97.3417 81.3187 97.6101 81.1446C97.8785 80.9705 98.2629 80.8834 98.7634 80.8834C99.2639 80.8834 99.6193 81.0067 99.8297 81.2534C100.04 81.5 100.113 81.8264 100.04 82.2327L100.011 82.4503H103.021L103.065 82.1819C103.261 81.0938 102.992 80.2451 102.274 79.6139Z" fill="white"/>
<path d="M104.871 78.903L104.486 81.1301H107.707L106.082 90.35H109.1L110.724 81.1301H113.938L114.329 78.903H104.871Z" fill="white"/>
<path d="M114.017 90.35H122.163L122.555 88.1375H117.39L117.84 85.5551H122.199L122.591 83.3788H118.224L118.623 81.1301H123.701L124.1 78.903H116.041L114.017 90.35Z" fill="white"/>
<path d="M132.1 85.3374C132.071 85.526 132.042 85.6856 132.021 85.8162C131.999 85.9468 131.977 86.1064 131.955 86.295H131.89C131.861 86.1136 131.839 85.954 131.81 85.8307C131.781 85.7074 131.738 85.5623 131.687 85.3955L129.417 78.903H126.211L124.187 90.35H126.682L127.785 84.0825C127.821 83.8939 127.85 83.7125 127.872 83.5457C127.893 83.3788 127.915 83.1975 127.937 83.0089H128.002C128.024 83.1902 128.046 83.3571 128.06 83.5021C128.082 83.6472 128.118 83.7996 128.176 83.9519L130.41 90.3428H133.711L135.734 78.8958H133.239L132.1 85.3229V85.3374Z" fill="white"/>
<path d="M143.358 78.6782C141.74 78.6782 140.362 79.1424 139.223 80.0709C138.085 80.9995 137.352 82.3995 137.026 84.2783L136.902 84.9892C136.583 86.839 136.822 88.2318 137.62 89.1749C138.418 90.1179 139.637 90.5894 141.262 90.5894C142.763 90.5894 144.018 90.2122 145.033 89.4505C146.049 88.6888 146.673 87.6878 146.905 86.4473L146.963 86.1644H143.916L143.858 86.4473C143.742 87.0639 143.503 87.5354 143.147 87.8691C142.792 88.2028 142.299 88.3697 141.675 88.3697C140.928 88.3697 140.413 88.1375 140.115 87.6733C139.825 87.209 139.767 86.4618 139.949 85.4317L140.224 83.8576C140.42 82.755 140.747 81.986 141.218 81.5653C141.682 81.1445 142.255 80.9269 142.93 80.9269C143.604 80.9269 144.025 81.0793 144.294 81.3767C144.555 81.6741 144.627 82.1529 144.504 82.813L144.46 83.1249H147.507L147.55 82.8638C147.768 81.6016 147.5 80.586 146.745 79.8316C145.991 79.0699 144.859 78.6927 143.358 78.6927V78.6782Z" fill="white"/>
<path d="M149.98 78.903L147.956 90.35H150.967L152.99 78.903H149.98Z" fill="white"/>
<path d="M160.976 90.35H164.241L161.789 78.8668H158.474L152.105 90.35H154.847L156.037 88.1303H160.556L160.976 90.35ZM157.19 85.9831L158.996 82.6171C159.091 82.443 159.17 82.2762 159.236 82.1166C159.301 81.957 159.359 81.7902 159.41 81.6306H159.475C159.475 81.7902 159.475 81.957 159.475 82.1166C159.475 82.2762 159.497 82.4503 159.526 82.6171L160.164 85.9831H157.205H157.19Z" fill="white"/>
</svg>
